<?xml version="1.0" encoding="UTF-8"?>
<svg xmlns="http://www.w3.org/2000/svg" xmlns:xlink="http://www.w3.org/1999/xlink" enable-background="new 0 183.619 837.471 656.619" height="656.619px" id="FOND" version="1.1" viewBox="0 183.619 837.471 656.619" width="837.471px" x="0px" xml:space="preserve" y="0px">
  <path d="M798.72,297.46c-0.41-0.621-1.246-2.184,0.271-1.891c1.514,0.291,2.776,2.679,4.463,1.545  c0.854-0.574,1.651-1.552,2.749-0.686c1.085,0.855,0.583,2.755,1.021,3.904c1.021,2.675,4.431,2.972,6.182,5.02  c0.531,0.622,3.11,3.062,2.205,3.854c-0.736,0.646-3.681-0.522-4.435-0.873c-2.273-1.053-3.145-3.506-4.98-5.046  c-0.626-0.522-1.375-0.847-2.023-1.338c-0.634-0.48-1.244-0.757-1.917-1.134c-0.727-0.405-1.18-1.148-1.846-1.613  C799.714,298.715,799.196,298.184,798.72,297.46z" fill="#3B425A"/>
</svg>
